<svg xmlns="http://www.w3.org/2000/svg" xmlns:xlink="http://www.w3.org/1999/xlink" width="1060px" height="265px" viewBox="0 0 1060.4731294713602 265.5338118317459">
    <g id="e070daf9-515e-47d0-a6e5-cd0d53a1db22">
<g style="">
		<g id="e070daf9-515e-47d0-a6e5-cd0d53a1db22-child-0">
<path style="stroke: rgb(193,193,193); stroke-opacity: 1.00; stroke-width: 0; stroke-dasharray: none; stroke-linecap: butt; stroke-dashoffset: 0; stroke-linejoin: miter; stroke-miterlimit: 4; fill: rgb(15,14,14); fill-opacity: 1.00; fill-rule: nonzero; opacity: 1;" transform="matrix(1.45728 0 0 1.456002 530.236564 132.766906) matrix(1 0 0 1 0 0)  translate(-414.985122, -193.695681)" d="M 356.97 283.06 C 345.94 280.73 337.97 277.46 329.40 271.76 C 315.14 262.26 304.05 248.54 298.04 232.95 C 292.88 219.56 291.65 212.22 291.62 194.50 C 291.59 175.74 293.49 166.16 299.99 152.28 C 311.22 128.32 328.69 113.66 354.09 106.88 C 366.03 103.69 385.91 103.69 398.00 106.87 C 427.88 114.73 449.34 136.92 457.61 168.50 C 459.79 176.81 460.25 180.87 460.35 192.50 C 460.49 208.39 459.12 217.59 454.77 230.00 C 445.27 257.15 422.40 277.45 395.00 283.04 C 383.08 285.47 368.42 285.48 356.97 283.06 z M 392.36 257.97 C 405.80 253.82 416.00 244.65 422.92 230.50 C 429.00 218.06 430.46 210.92 430.38 194.00 C 430.26 170.25 425.22 156.25 412.00 142.97 C 400.30 131.21 390.09 127.36 372.90 128.22 C 358.80 128.92 348.84 133.22 339.33 142.74 C 315.35 166.71 314.94 219.38 338.53 244.86 C 351.53 258.90 372.67 264.05 392.36 257.97 z M 518.50 283.97 C 510.40 282.72 496.81 278.44 489.58 274.86 C 480.97 270.60 471.31 263.41 467.94 258.75 C 461.83 250.33 465.46 240.16 475.18 238.48 C 479.54 237.73 481.68 238.73 488.50 244.67 C 494.26 249.70 506.79 256.09 515.50 258.46 C 524.02 260.77 539.52 261.55 547.19 260.05 C 558.23 257.90 566.14 252.18 569.79 243.70 C 571.62 239.46 571.26 229.16 569.11 224.43 C 565.14 215.68 557.04 211.22 527.29 201.38 C 493.10 190.07 483.03 183.95 476.43 170.48 C 473.68 164.87 472.22 161.38 472.22 152.76 C 472.22 143.61 473.55 140.29 477.22 132.87 C 484.64 117.85 498.59 108.77 519.39 105.39 C 528.77 103.87 531.84 103.78 541.39 104.75 C 560.65 106.71 576.88 112.49 585.91 120.61 C 591.74 125.85 593.10 129.97 590.61 134.79 C 586.32 143.09 579.91 144.03 569.48 137.88 C 543.91 122.80 512.60 124.43 503.79 141.31 C 500.99 146.67 500.90 155.09 503.59 160.57 C 507.45 168.43 514.62 172.05 544.00 180.99 C 562.27 186.55 577.92 193.78 585.14 199.98 C 605.42 217.40 606.52 248.50 587.54 267.58 C 576.35 278.82 561.68 283.89 538.50 284.52 C 530.80 284.72 521.80 284.48 518.50 283.97 z M 676.50 283.34 C 650.11 277.69 629.49 261.50 618.56 237.84 C 611.92 223.47 609.10 207.83 609.10 193.70 C 609.10 180.18 610.74 174.02 613.36 165.50 C 616.82 154.27 623.51 141.46 630.30 133.07 C 658.69 97.98 717.67 94.33 750.91 125.60 C 764.95 138.81 772.95 153.51 777.22 174.00 C 779.78 186.26 779.23 209.17 776.09 221.23 C 772.34 235.60 765.71 248.19 756.24 258.92 C 750.15 265.82 735.80 275.80 727.35 279.00 C 712.29 284.70 691.24 286.49 676.50 283.34 z M 711.35 257.88 C 728.01 252.27 741.23 237.13 746.62 217.50 C 749.05 208.63 749.60 185.52 747.60 176.06 C 742.94 154.00 730.38 137.52 713.22 130.93 C 705.17 127.83 688.62 127.10 680.47 129.47 C 671.19 132.16 665.03 135.78 658.47 142.38 C 647.76 153.15 641.61 167.45 640.16 184.95 C 638.61 203.58 641.45 219.66 648.62 232.85 C 653.36 241.57 656.53 245.40 663.26 250.49 C 676.32 260.40 695.24 263.31 711.35 257.88 z M 59.42 281.03 C 56.31 279.77 52.16 274.37 51.49 270.72 C 51.17 268.95 51.04 236.65 51.20 198.95 L 51.50 130.39 L 55.27 122.76 C 62.20 108.75 72.35 102.58 88.50 102.56 C 96.16 102.55 98.35 102.94 103.22 105.20 C 111.10 108.87 118.42 115.99 121.93 123.41 C 123.52 126.78 128.03 142.23 132.02 158.00 C 138.67 184.30 144.93 208.75 151.70 234.95 C 153.19 240.70 155.22 246.22 156.20 247.20 C 158.51 249.51 163.23 249.51 165.31 247.21 C 166.26 246.16 172.91 221.64 181.39 187.94 C 189.35 156.32 196.81 127.90 197.98 124.78 C 200.92 116.92 207.57 109.83 215.79 105.78 C 221.92 102.77 223.23 102.50 231.98 102.51 C 240.17 102.52 242.29 102.89 247.18 105.17 C 259.59 110.97 267.11 121.74 269.05 136.50 C 269.72 141.59 269.99 167.77 269.80 208.54 C 269.52 268.30 269.38 272.77 267.70 275.34 C 263.78 281.32 255.25 283.74 249.20 280.60 C 244.30 278.05 242.00 274.63 240.98 268.41 C 240.43 265.06 240.01 235.63 240.01 200.38 C 240.00 138.67 239.99 138.25 237.89 135.58 C 236.18 133.42 235.08 132.95 232.23 133.20 C 227.64 133.59 225.62 136.41 223.11 146.00 C 220.29 156.77 212.38 187.60 202.99 224.44 C 198.51 242.00 193.73 258.58 192.36 261.28 C 188.99 267.93 182.06 274.61 175.20 277.83 C 170.27 280.14 168.21 280.50 160.00 280.50 C 151.64 280.49 149.90 280.17 145.50 277.83 C 138.80 274.26 131.66 266.73 128.58 259.98 C 127.20 256.95 124.23 247.27 121.98 238.48 C 119.74 229.69 115.48 213.05 112.51 201.50 C 109.55 189.95 105.05 172.40 102.52 162.50 C 96.59 139.26 95.23 135.19 92.98 133.99 C 89.64 132.20 85.48 132.86 82.92 135.58 L 80.50 138.16 L 80.00 204.83 C 79.44 278.93 79.75 275.74 72.70 280.04 C 69.38 282.07 63.13 282.53 59.42 281.03 z" stroke-linecap="round"></path>
</g>
</g>
</g>

  </svg>