<svg xmlns="http://www.w3.org/2000/svg" xmlns:xlink="http://www.w3.org/1999/xlink" width="836px" height="829px" viewBox="0 0 835.5022401498918 828.8501833328148">
    <g id="1d7487c3-cc0a-4945-a960-5e26d15ccef8">
<g style="">
		<g id="1d7487c3-cc0a-4945-a960-5e26d15ccef8-child-0">
<path style="stroke: rgb(193,193,193); stroke-opacity: 1.00; stroke-width: 0; stroke-dasharray: none; stroke-linecap: butt; stroke-dashoffset: 0; stroke-linejoin: miter; stroke-miterlimit: 4; fill: rgb(0,0,0); fill-opacity: 1.00; fill-rule: nonzero; opacity: 1;" transform="matrix(1.134703 0 0 1.134707 417.75112 414.425092) matrix(1 0 0 1 0 0)  translate(-369.684487, -367.437569)" d="M 343.01 731.89 C 319.92 730.50 295.69 726.45 272.00 720.01 C 223.56 706.85 179.10 683.51 136.00 648.60 C 125.68 640.25 101.57 616.59 91.05 604.50 C 44.49 550.99 14.81 486.76 5.11 418.50 C -1.68 370.69 1.20 321.13 13.55 273.50 C 27.39 220.14 52.02 172.43 86.89 131.50 C 131.25 79.42 188.07 40.93 251.00 20.35 C 293.47 6.45 328.53 1.38 375.50 2.32 C 411.78 3.04 428.43 5.03 457.50 12.08 C 501.28 22.71 546.49 43.34 583.74 69.70 C 630.91 103.07 670.43 148.01 696.18 197.58 C 722.99 249.17 736.43 301.08 737.73 358.06 C 739.33 428.09 724.05 488.41 689.45 548.58 C 660.20 599.46 610.10 650.06 558.74 680.60 C 493.14 719.61 421.57 736.63 343.01 731.89 Z M 390.50 678.53 C 422.65 677.20 454.06 670.50 482.89 658.82 C 553.06 630.40 607.51 583.50 644.82 519.33 C 664.21 486.00 677.59 445.76 683.18 404.00 C 684.91 391.10 684.88 340.57 683.14 328.00 C 681.00 312.55 676.36 290.39 672.48 277.00 C 651.71 205.51 600.31 139.03 536.08 100.59 C 487.20 71.34 442.08 57.48 383.82 53.84 C 331.87 50.59 276.81 62.33 228.00 87.06 C 166.07 118.43 118.27 166.12 86.43 228.29 C 51.81 295.89 44.37 382.31 66.82 456.00 C 81.13 502.95 107.49 547.06 142.94 583.37 C 170.54 611.63 195.51 629.60 231.50 647.09 C 256.29 659.14 279.30 667.23 305.50 673.10 C 322.84 676.99 359.39 680.35 373.50 679.35 C 375.70 679.19 383.35 678.83 390.50 678.53 Z M 163.76 543.58 C 156.21 540.88 152.00 536.63 147.80 527.44 L 145.53 522.50 L 144.66 399.00 C 143.60 248.01 143.96 238.72 151.54 220.08 C 168.82 177.62 220.82 161.13 261.78 185.15 C 270.92 190.51 284.74 205.04 289.68 214.50 C 295.42 225.47 297.36 231.85 309.52 279.77 C 354.88 458.37 357.10 466.80 359.93 471.38 C 362.34 475.29 365.71 477.00 370.98 477.00 C 378.97 477.00 382.48 473.72 385.44 463.50 C 386.24 460.75 398.87 410.58 413.51 352.00 C 443.42 232.40 444.69 227.66 449.93 216.50 C 463.15 188.37 490.81 172.41 523.00 174.32 C 535.28 175.04 542.32 176.94 554.00 182.67 C 561.94 186.57 564.89 188.74 572.00 195.92 C 581.68 205.69 586.96 214.07 590.52 225.30 C 595.59 241.28 595.50 238.34 595.50 384.50 C 595.50 516.36 595.43 521.70 593.61 526.94 C 590.86 534.84 584.29 541.09 576.43 543.30 C 568.84 545.43 564.21 545.44 556.80 543.36 C 550.35 541.55 543.04 535.91 540.31 530.64 C 535.48 521.31 535.66 526.32 535.06 383.50 L 534.50 249.50 L 532.16 245.41 C 529.16 240.19 524.81 237.61 519.02 237.63 C 512.43 237.66 508.75 240.01 505.62 246.20 C 504.02 249.36 499.09 266.63 493.39 289.00 C 488.14 309.62 480.72 338.65 476.90 353.50 C 473.09 368.35 463.91 404.47 456.51 433.76 C 449.11 463.05 441.68 490.46 439.99 494.68 C 433.21 511.62 418.16 528.28 402.84 535.79 C 382.67 545.69 357.17 545.49 337.70 535.28 C 325.27 528.77 309.94 512.24 304.50 499.50 C 300.34 489.72 297.20 478.80 286.85 438.00 C 280.78 414.08 274.06 387.75 271.91 379.50 C 266.44 358.52 247.09 282.75 245.35 275.50 C 242.20 262.37 237.72 248.29 235.45 244.37 C 231.89 238.23 224.08 235.51 217.32 238.06 C 213.19 239.62 208.14 244.90 206.89 248.96 C 205.90 252.20 204.93 323.77 203.75 480.50 C 203.46 520.41 203.39 521.65 201.18 527.17 C 198.18 534.68 192.67 540.23 185.57 542.89 C 179.06 545.32 169.50 545.63 163.76 543.58 Z" stroke-linecap="round"></path>
</g>
</g>
</g>

  </svg>