<svg xmlns="http://www.w3.org/2000/svg" xmlns:xlink="http://www.w3.org/1999/xlink" width="500" zoomAndPan="magnify" viewBox="0 0 375 374.999991" height="500" preserveAspectRatio="xMidYMid meet" version="1.0"><defs><g/></defs><g fill="#000000" fill-opacity="1"><g transform="translate(4.891762, 222.791566)"><g><path d="M 9.765625 -72.390625 C 9.765625 -74.484375 10.453125 -76.21875 11.828125 -77.59375 C 13.210938 -78.976562 14.804688 -79.8125 16.609375 -80.09375 C 16.929688 -80.164062 17.234375 -80.203125 17.515625 -80.203125 L 18.359375 -80.203125 C 19.878906 -80.203125 21.328125 -79.785156 22.703125 -78.953125 C 24.085938 -78.117188 25.222656 -76.585938 26.109375 -74.359375 L 48.71875 -15.765625 L 71.28125 -74.359375 C 72.164062 -76.585938 73.296875 -78.117188 74.671875 -78.953125 C 76.054688 -79.785156 77.507812 -80.203125 79.03125 -80.203125 L 79.875 -80.203125 C 80.164062 -80.203125 80.46875 -80.164062 80.78125 -80.09375 C 82.582031 -79.8125 84.171875 -78.976562 85.546875 -77.59375 C 86.929688 -76.21875 87.625 -74.484375 87.625 -72.390625 L 87.625 -6.640625 C 87.625 -5.117188 87.09375 -4.046875 86.03125 -3.421875 C 84.976562 -2.804688 83.988281 -2.5 83.0625 -2.5 C 82.175781 -2.5 81.191406 -2.804688 80.109375 -3.421875 C 79.035156 -4.046875 78.5 -5.117188 78.5 -6.640625 L 78.5 -68.890625 L 55.671875 -10.25 C 54.859375 -8.195312 53.847656 -6.753906 52.640625 -5.921875 C 51.441406 -5.085938 50.132812 -4.671875 48.71875 -4.671875 C 47.269531 -4.671875 45.941406 -5.085938 44.734375 -5.921875 C 43.535156 -6.753906 42.53125 -8.195312 41.71875 -10.25 L 18.890625 -68.890625 L 18.890625 -6.640625 C 18.890625 -5.117188 18.347656 -4.046875 17.265625 -3.421875 C 16.191406 -2.804688 15.210938 -2.5 14.328125 -2.5 C 13.410156 -2.5 12.421875 -2.804688 11.359375 -3.421875 C 10.296875 -4.046875 9.765625 -5.117188 9.765625 -6.640625 Z M 9.765625 -72.390625 "/></g></g></g><g fill="#000000" fill-opacity="1"><g transform="translate(112.06816, 222.791566)"><g><path d="M 6.53125 -41.296875 C 6.53125 -46.890625 7.414062 -52.09375 9.1875 -56.90625 C 10.957031 -61.71875 13.429688 -65.9375 16.609375 -69.5625 C 19.796875 -73.1875 23.53125 -76.015625 27.8125 -78.046875 C 32.09375 -80.085938 36.765625 -81.109375 41.828125 -81.109375 C 46.921875 -81.109375 51.609375 -80.085938 55.890625 -78.046875 C 60.171875 -76.015625 63.90625 -73.1875 67.09375 -69.5625 C 70.28125 -65.9375 72.753906 -61.71875 74.515625 -56.90625 C 76.285156 -52.09375 77.171875 -46.890625 77.171875 -41.296875 C 77.171875 -35.628906 76.300781 -30.390625 74.5625 -25.578125 C 72.832031 -20.765625 70.375 -16.546875 67.1875 -12.921875 C 64.007812 -9.296875 60.28125 -6.472656 56 -4.453125 C 51.71875 -2.441406 46.992188 -1.4375 41.828125 -1.4375 C 36.691406 -1.4375 31.984375 -2.441406 27.703125 -4.453125 C 23.421875 -6.472656 19.6875 -9.296875 16.5 -12.921875 C 13.320312 -16.546875 10.863281 -20.765625 9.125 -25.578125 C 7.394531 -30.390625 6.53125 -35.628906 6.53125 -41.296875 Z M 67.40625 -41.1875 C 67.40625 -47.34375 66.242188 -52.800781 63.921875 -57.5625 C 61.609375 -62.320312 58.53125 -66.035156 54.6875 -68.703125 C 50.851562 -71.378906 46.566406 -72.71875 41.828125 -72.71875 C 37.117188 -72.71875 32.84375 -71.378906 29 -68.703125 C 25.164062 -66.035156 22.085938 -62.320312 19.765625 -57.5625 C 17.453125 -52.800781 16.296875 -47.34375 16.296875 -41.1875 C 16.296875 -35.03125 17.453125 -29.613281 19.765625 -24.9375 C 22.085938 -20.269531 25.164062 -16.59375 29 -13.90625 C 32.84375 -11.21875 37.117188 -9.875 41.828125 -9.875 C 46.566406 -9.875 50.851562 -11.21875 54.6875 -13.90625 C 58.53125 -16.59375 61.609375 -20.269531 63.921875 -24.9375 C 66.242188 -29.613281 67.40625 -35.03125 67.40625 -41.1875 Z M 67.40625 -41.1875 "/></g></g></g><g fill="#000000" fill-opacity="1"><g transform="translate(205.551173, 222.791566)"><g><path d="M 8.703125 -60.984375 C 8.703125 -64.660156 9.753906 -68.019531 11.859375 -71.0625 C 13.960938 -74.113281 17.003906 -76.550781 20.984375 -78.375 C 24.972656 -80.195312 29.726562 -81.109375 35.25 -81.109375 C 39.8125 -81.109375 44.132812 -80.414062 48.21875 -79.03125 C 52.3125 -77.65625 55.910156 -75.515625 59.015625 -72.609375 C 59.765625 -71.972656 60.28125 -71.304688 60.5625 -70.609375 C 60.84375 -69.921875 60.984375 -69.242188 60.984375 -68.578125 C 60.984375 -67.515625 60.578125 -66.503906 59.765625 -65.546875 C 58.847656 -64.453125 57.660156 -63.90625 56.203125 -63.90625 C 54.898438 -63.90625 53.804688 -64.382812 52.921875 -65.34375 C 48.285156 -70.332031 42.5 -72.828125 35.5625 -72.828125 C 29.832031 -72.828125 25.441406 -71.71875 22.390625 -69.5 C 19.347656 -67.289062 17.828125 -64.523438 17.828125 -61.203125 C 17.828125 -59.460938 18.191406 -57.972656 18.921875 -56.734375 C 19.648438 -55.492188 20.773438 -54.347656 22.296875 -53.296875 C 23.671875 -52.265625 25.347656 -51.347656 27.328125 -50.546875 C 29.316406 -49.753906 32.3125 -48.773438 36.3125 -47.609375 C 41.300781 -46.160156 45.171875 -44.929688 47.921875 -43.921875 C 50.679688 -42.910156 53.175781 -41.820312 55.40625 -40.65625 C 58.769531 -38.851562 61.351562 -36.535156 63.15625 -33.703125 C 64.96875 -30.867188 65.875 -27.523438 65.875 -23.671875 C 65.875 -16.953125 63.28125 -11.566406 58.09375 -7.515625 C 52.90625 -3.460938 45.710938 -1.4375 36.515625 -1.4375 C 30.285156 -1.4375 24.921875 -2.425781 20.421875 -4.40625 C 15.929688 -6.382812 12.238281 -8.863281 9.34375 -11.84375 C 7.75 -13.425781 6.953125 -14.945312 6.953125 -16.40625 C 6.953125 -17.351562 7.289062 -18.253906 7.96875 -19.109375 C 8.738281 -20.273438 9.882812 -20.859375 11.40625 -20.859375 C 12.863281 -20.859375 14.28125 -20.132812 15.65625 -18.6875 C 17.957031 -16.3125 20.898438 -14.25 24.484375 -12.5 C 28.078125 -10.75 32.085938 -9.875 36.515625 -9.875 C 43.347656 -9.875 48.410156 -11.253906 51.703125 -14.015625 C 54.992188 -16.773438 56.640625 -19.957031 56.640625 -23.5625 C 56.640625 -25.6875 56.097656 -27.578125 55.015625 -29.234375 C 53.929688 -30.898438 52.472656 -32.210938 50.640625 -33.171875 C 48.898438 -34.085938 47.234375 -34.851562 45.640625 -35.46875 C 44.054688 -36.09375 42.289062 -36.710938 40.34375 -37.328125 C 38.394531 -37.953125 36.039062 -38.691406 33.28125 -39.546875 C 29.351562 -40.710938 26.125 -41.878906 23.59375 -43.046875 C 21.0625 -44.210938 19.035156 -45.222656 17.515625 -46.078125 C 14.679688 -47.660156 12.503906 -49.609375 10.984375 -51.921875 C 9.460938 -54.242188 8.703125 -57.265625 8.703125 -60.984375 Z M 8.703125 -60.984375 "/></g></g></g><g fill="#000000" fill-opacity="1"><g transform="translate(286.40229, 222.791566)"><g><path d="M 6.53125 -41.296875 C 6.53125 -46.890625 7.414062 -52.09375 9.1875 -56.90625 C 10.957031 -61.71875 13.429688 -65.9375 16.609375 -69.5625 C 19.796875 -73.1875 23.53125 -76.015625 27.8125 -78.046875 C 32.09375 -80.085938 36.765625 -81.109375 41.828125 -81.109375 C 46.921875 -81.109375 51.609375 -80.085938 55.890625 -78.046875 C 60.171875 -76.015625 63.90625 -73.1875 67.09375 -69.5625 C 70.28125 -65.9375 72.753906 -61.71875 74.515625 -56.90625 C 76.285156 -52.09375 77.171875 -46.890625 77.171875 -41.296875 C 77.171875 -35.628906 76.300781 -30.390625 74.5625 -25.578125 C 72.832031 -20.765625 70.375 -16.546875 67.1875 -12.921875 C 64.007812 -9.296875 60.28125 -6.472656 56 -4.453125 C 51.71875 -2.441406 46.992188 -1.4375 41.828125 -1.4375 C 36.691406 -1.4375 31.984375 -2.441406 27.703125 -4.453125 C 23.421875 -6.472656 19.6875 -9.296875 16.5 -12.921875 C 13.320312 -16.546875 10.863281 -20.765625 9.125 -25.578125 C 7.394531 -30.390625 6.53125 -35.628906 6.53125 -41.296875 Z M 67.40625 -41.1875 C 67.40625 -47.34375 66.242188 -52.800781 63.921875 -57.5625 C 61.609375 -62.320312 58.53125 -66.035156 54.6875 -68.703125 C 50.851562 -71.378906 46.566406 -72.71875 41.828125 -72.71875 C 37.117188 -72.71875 32.84375 -71.378906 29 -68.703125 C 25.164062 -66.035156 22.085938 -62.320312 19.765625 -57.5625 C 17.453125 -52.800781 16.296875 -47.34375 16.296875 -41.1875 C 16.296875 -35.03125 17.453125 -29.613281 19.765625 -24.9375 C 22.085938 -20.269531 25.164062 -16.59375 29 -13.90625 C 32.84375 -11.21875 37.117188 -9.875 41.828125 -9.875 C 46.566406 -9.875 50.851562 -11.21875 54.6875 -13.90625 C 58.53125 -16.59375 61.609375 -20.269531 63.921875 -24.9375 C 66.242188 -29.613281 67.40625 -35.03125 67.40625 -41.1875 Z M 67.40625 -41.1875 "/></g></g></g></svg>