<svg xmlns="http://www.w3.org/2000/svg" width="248" height="248" viewBox="0 0 248 248">
  <defs>
    <style>
      .cls-1 {
        fill: #fff;
        fill-rule: evenodd;
      }
    </style>
  </defs>
  <path id="_Let_s_Talk_Say_Hello_Let_s_Talk_Say_Hello" data-name=" •  Let’s Talk  •  Say Hello  •  Let’s Talk  •  Say Hello" class="cls-1" d="M229.273,103.57l-0.475-2.323,5.382-1.1,9.313-7.482,0.547,2.679-7.011,5.456,8.6,2.319,0.542,2.655-11.515-3.3Zm-2.361-10.08,3.281-2.587-2.109-6.132-4.17,0-0.842-2.448L240.205,82.6l0.89,2.585L227.746,95.915Zm4.974-3.912,6.182-4.864-7.842.037Zm-0.337-15.832L230.4,71.589a3.416,3.416,0,0,0,1.427-2.059,4.072,4.072,0,0,0-.579-2.637,4.223,4.223,0,0,0-1.833-1.93,2.247,2.247,0,0,0-2.132.036,1.738,1.738,0,0,0-.968,1.323,4.382,4.382,0,0,0,.362,2.177l0.741,1.962q1.905,4.824-1.771,6.776a4.169,4.169,0,0,1-2.515.5,4.8,4.8,0,0,1-2.412-1.061,7.758,7.758,0,0,1-1.977-2.484,7.319,7.319,0,0,1-.972-4.744,5.146,5.146,0,0,1,2.307-3.472l1.157,2.18q-2.389,1.845-.665,5.093a4.177,4.177,0,0,0,1.806,1.9,2.2,2.2,0,0,0,2.094-.03q1.773-.942.665-3.75l-0.808-2.037a6.192,6.192,0,0,1-.435-3.837,4.019,4.019,0,0,1,2.161-2.559,4.266,4.266,0,0,1,3.837-.23,6.726,6.726,0,0,1,3.186,3.239,6.6,6.6,0,0,1,.834,4.433A5.137,5.137,0,0,1,231.549,73.747ZM220.322,179.253a9.232,9.232,0,0,1,4.046,1.55,10.127,10.127,0,0,1,3.231,3.214,7.107,7.107,0,0,1,1.068,3.779,7.572,7.572,0,0,1-4.24,6.478,7.125,7.125,0,0,1-3.892.532,10.149,10.149,0,0,1-4.238-1.676,9.248,9.248,0,0,1-3.038-3.088,6.815,6.815,0,0,1-.947-3.7,7.962,7.962,0,0,1,4.241-6.477A6.811,6.811,0,0,1,220.322,179.253Zm-4.874,4.53a4.434,4.434,0,0,0-.689,3.857,6.51,6.51,0,0,0,2.89,3.425,7.368,7.368,0,0,0,4.558,1.452,4.294,4.294,0,0,0,3.362-2.108,4.356,4.356,0,0,0,.608-3.954,7.324,7.324,0,0,0-3.147-3.608,6.473,6.473,0,0,0-4.3-1.269A4.5,4.5,0,0,0,215.448,183.783ZM210.53,48.952a2.086,2.086,0,0,1-1.509-.729,2.057,2.057,0,0,1-.536-1.564,2.118,2.118,0,0,1,.728-1.492,2.148,2.148,0,0,1,3.04.174,2.1,2.1,0,0,1,.561,1.574A2.073,2.073,0,0,1,212.1,48.4,2.114,2.114,0,0,1,210.53,48.952ZM201.442,212.5a2.078,2.078,0,0,1-1.487-.713,2.117,2.117,0,0,1-.559-1.563,2.082,2.082,0,0,1,.723-1.512,2.055,2.055,0,0,1,1.562-.542,2.113,2.113,0,0,1,1.495.722,2.148,2.148,0,0,1-.162,3.041A2.108,2.108,0,0,1,201.442,212.5ZM190.515,39.639L188.148,38l-0.892-9-2.233.633-2.9,4.2-1.97-1.363,9.168-13.251,1.97,1.363-4.612,6.666,10.3-2.729,2.527,1.748-10.063,2.511ZM185.571,230.9l-6.707-12.133-6.5,3.594-1.089-1.97,8.6-4.752,7.8,14.1ZM176.752,30.5l-8.774-4.416,7.245-14.393,2.139,1.077-6.233,12.383,6.635,3.34ZM163.207,241.1l-0.821-2.121,8.1-3.135-1.624-4.2-7.446,2.882L160.6,232.4l7.446-2.883-1.739-4.49-8.1,3.136-0.812-2.1,10.334-4,5.817,15.027ZM162,19.461l-6.157-2.035-2.524,3.319-2.458-.812L161.456,6.464l2.6,0.858,0.456,17.122-2.435-.8ZM161.846,9.447l-4.72,6.263,4.847,1.6ZM147.694,5.265l-2.559,13.6-2.354-.443,2.559-13.6-4.613-.868,0.42-2.235,11.6,2.183L152.33,6.137Zm-6.861,242.171-2.737.339-0.343-2.761,0.7-3.792,1.729-.215-1.324,3.87,1.633-.2Zm-15.51-9.455,2.182,0.2a6.187,6.187,0,0,1,3.619,1.348,4.019,4.019,0,0,1,1.3,3.085,4.263,4.263,0,0,1-1.53,3.525,6.722,6.722,0,0,1-4.33,1.377,6.6,6.6,0,0,1-4.331-1.262,5.139,5.139,0,0,1-1.932-3.629l2.443-.046a3.422,3.422,0,0,0,1.191,2.2,4.078,4.078,0,0,0,2.615.677,4.219,4.219,0,0,0,2.55-.762,2.245,2.245,0,0,0,.932-1.917,1.736,1.736,0,0,0-.742-1.462,4.385,4.385,0,0,0-2.105-.662l-2.086-.227q-5.163-.483-5.242-4.644a4.172,4.172,0,0,1,.692-2.469,4.8,4.8,0,0,1,2.037-1.672,7.759,7.759,0,0,1,3.11-.64,7.322,7.322,0,0,1,4.67,1.279,5.147,5.147,0,0,1,2.053,3.628l-2.468.046q-0.564-2.966-4.241-2.9a4.172,4.172,0,0,0-2.514.749,2.2,2.2,0,0,0-.921,1.881Q122.318,237.7,125.323,237.981ZM118.151,6.708a4.392,4.392,0,0,0,2.109.652l2.087,0.217q5.165,0.459,5.263,4.619a4.172,4.172,0,0,1-.68,2.473,4.8,4.8,0,0,1-2.029,1.681,7.757,7.757,0,0,1-3.107.654,7.316,7.316,0,0,1-4.676-1.257,5.147,5.147,0,0,1-2.07-3.618l2.467-.058q0.579,2.963,4.255,2.877a4.173,4.173,0,0,0,2.511-.761,2.2,2.2,0,0,0,.912-1.885q-0.048-2.007-3.055-2.276l-2.183-.191a6.191,6.191,0,0,1-3.625-1.33,4.025,4.025,0,0,1-1.319-3.079,4.269,4.269,0,0,1,1.514-3.533A6.724,6.724,0,0,1,120.849.5a6.6,6.6,0,0,1,4.337,1.241,5.14,5.14,0,0,1,1.949,3.621l-2.443.058a3.418,3.418,0,0,0-1.2-2.2,4.077,4.077,0,0,0-2.617-.664,4.222,4.222,0,0,0-2.547.774A2.247,2.247,0,0,0,117.4,5.25,1.738,1.738,0,0,0,118.151,6.708Zm-10.886.362,1.3-3.876-1.631.21-0.356-2.76,2.735-.353,0.356,2.76-0.681,3.8Zm-0.554,236.9L106.28,246.2l-11.593-2.237,0.431-2.234,4.632,0.895,2.623-13.589,2.352,0.454L102.1,243.078ZM100.52,19.361l-2.332.549L95.018,6.439,90.449,7.514,89.928,5.3,101.421,2.6l0.521,2.214L97.349,5.89Zm-11.209.633,0.822,2.095L79.819,26.138l-5.888-15L84.245,7.089l0.831,2.117L76.991,12.38l1.644,4.189,7.432-2.917L86.9,15.769l-7.432,2.917,1.759,4.482Zm-13.04,7.84L67.7,32.627,59.834,18.562l2.091-1.169,6.765,12.1,6.483-3.624ZM62.534,218.08l2.924-4.184,1.963,1.372-9.23,13.208L56.228,227.1l4.643-6.644-10.315,2.68-2.519-1.76,10.075-2.464-1.024-10.869,2.36,1.65,0.85,9ZM45.917,40.2a2.115,2.115,0,0,1-1.5-.715,2.148,2.148,0,0,1,.148-3.042,2.105,2.105,0,0,1,1.569-.575,2.077,2.077,0,0,1,1.49.706,2.116,2.116,0,0,1,.567,1.56,2.084,2.084,0,0,1-.716,1.515A2.055,2.055,0,0,1,45.917,40.2ZM36.859,202.971a2.071,2.071,0,0,1-1.481-.726,2.105,2.105,0,0,1-.554-1.577,2.076,2.076,0,0,1,.726-1.48,2.118,2.118,0,0,1,1.568-.546,2.087,2.087,0,0,1,1.506.736,2.057,2.057,0,0,1,.529,1.567,2.118,2.118,0,0,1-.735,1.489A2.078,2.078,0,0,1,36.859,202.971ZM31.711,67.7a6.812,6.812,0,0,1-3.772.594A9.248,9.248,0,0,1,23.9,66.726,10.138,10.138,0,0,1,20.685,63.5a7.118,7.118,0,0,1-1.05-3.784,7.571,7.571,0,0,1,4.271-6.457,7.123,7.123,0,0,1,3.893-.514,10.144,10.144,0,0,1,4.23,1.7,9.251,9.251,0,0,1,3.024,3.1,6.818,6.818,0,0,1,.929,3.7A7.964,7.964,0,0,1,31.711,67.7Zm1.831-7.767A6.513,6.513,0,0,0,30.668,56.5a7.37,7.37,0,0,0-4.552-1.473,4.3,4.3,0,0,0-3.371,2.092,4.355,4.355,0,0,0-.626,3.951,7.319,7.319,0,0,0,3.13,3.622,6.471,6.471,0,0,0,4.3,1.29,4.5,4.5,0,0,0,3.29-2.189A4.436,4.436,0,0,0,33.542,59.934ZM27.106,72.769l2.036,0.958-4.183,8.888L10.379,75.753l1.02-2.167,12.544,5.9ZM21.349,85.561l2.142,0.688L20.486,95.6,5.145,90.671l0.733-2.28,13.2,4.242ZM4.281,105.752l4.431,0.784,1.39-7.862,2.239,0.4-1.39,7.862,4.741,0.838,1.512-8.553,2.216,0.392L17.492,110.52l-15.867-2.8L3.553,96.8l2.24,0.4Zm12.637,11.553-7.184-.17L9.54,125.31l7.184,0.171-0.057,2.394-16.109-.382L0.614,125.1l6.652,0.158,0.194-8.175-6.652-.158,0.057-2.395,16.109,0.383Zm1.716,26.632,0.463,2.326-5.386,1.073-9.348,7.438-0.534-2.682,7.036-5.423-8.586-2.36-0.529-2.657,11.5,3.358Zm2.312,10.089L17.653,156.6l2.08,6.141,4.17,0.018,0.831,2.452L7.6,164.856l-0.877-2.589,13.4-10.67Zm-4.993,3.888-6.2,4.835h7.842Zm0.261,15.83,1.136,2.164a3.412,3.412,0,0,0-1.436,2.052,4.076,4.076,0,0,0,.566,2.64,4.221,4.221,0,0,0,1.824,1.939,2.246,2.246,0,0,0,2.131-.026,1.739,1.739,0,0,0,.975-1.318,4.391,4.391,0,0,0-.352-2.179l-0.732-1.966q-1.882-4.833,1.8-6.767a4.172,4.172,0,0,1,2.517-.489,4.8,4.8,0,0,1,2.408,1.072,7.758,7.758,0,0,1,1.965,2.494,7.316,7.316,0,0,1,.949,4.748,5.146,5.146,0,0,1-2.323,3.461L26.5,179.384q2.4-1.833.689-5.09a4.175,4.175,0,0,0-1.8-1.912,2.2,2.2,0,0,0-2.094.02q-1.778.933-.683,3.747l0.8,2.041a6.188,6.188,0,0,1,.417,3.839,4.021,4.021,0,0,1-2.173,2.548,4.267,4.267,0,0,1-3.838.212,6.726,6.726,0,0,1-3.171-3.254,6.6,6.6,0,0,1-.813-4.437A5.134,5.134,0,0,1,16.215,173.744Zm54.592,43.5,8.753,4.458-7.313,14.359-2.134-1.087L76.4,222.624l-6.619-3.371Zm14.7,11.111,6.147,2.064,2.54-3.307,2.454,0.824L85.991,241.359l-2.592-.871-0.375-17.123,2.431,0.816Zm0.108,10.015,4.75-6.24-4.839-1.625Zm61.368-9.626,2.334-.537,3.106,13.486L157,240.643l0.51,2.217L146,245.51l-0.511-2.217,4.6-1.059Zm74.149-53.968-2.041-.948,4.142-8.907,14.611,6.793-1.01,2.172-12.571-5.845Zm5.7-12.824-2.145-.678,2.961-9.366,15.363,4.857-0.722,2.284-13.218-4.179ZM243.8,141.685l-4.435-.762-1.353,7.868-2.242-.385,1.353-7.869-4.745-.816-1.472,8.56-2.217-.381,1.878-10.921,15.88,2.731-1.878,10.921-2.241-.386ZM231.112,130.2l7.184,0.138,0.157-8.177-7.184-.137,0.046-2.395,16.11,0.309-0.046,2.395-6.652-.128-0.157,8.176,6.652,0.128-0.046,2.395-16.11-.31Z"/>
</svg>
