<svg xmlns="http://www.w3.org/2000/svg" xmlns:xlink="http://www.w3.org/1999/xlink" width="372px" height="369px" viewBox="0 0 371.6257178399992 368.66254993116036">
    <g id="fd54f078-a765-43f9-b29a-fc83b585e92c">
<g style="">
		<g id="fd54f078-a765-43f9-b29a-fc83b585e92c-child-0">
<path style="stroke: rgb(193,193,193); stroke-opacity: 1.00; stroke-width: 0; stroke-dasharray: none; stroke-linecap: butt; stroke-dashoffset: 0; stroke-linejoin: miter; stroke-miterlimit: 4; fill: rgb(255,255,255); fill-opacity: 1.00; fill-rule: nonzero; opacity: 1;" transform="matrix(0.819624 0 0 0.81962 185.812859 184.331275) matrix(1 0 0 1 0 0)  translate(-255.295, -254.101541)" d="M 240.15 477.25 C 239.65 476.29 237.64 471.00 235.70 465.50 C 223.52 431.13 218.71 404.14 218.62 369.50 C 218.55 340.75 221.61 318.46 229.30 291.70 C 231.16 285.22 232.32 279.70 231.89 279.43 C 231.04 278.91 230.67 279.45 224.25 290.50 C 203.41 326.41 169.69 361.21 135.46 382.12 C 121.10 390.90 98.03 401.83 88.11 404.56 C 85.91 405.17 85.78 405.01 86.41 402.36 C 87.43 398.08 100.06 372.83 106.60 362.00 C 128.00 326.53 157.63 296.24 192.00 274.69 C 209.49 263.73 210.14 262.67 197.38 265.94 C 185.67 268.94 165.59 271.92 149.98 272.97 C 111.87 275.53 70.04 267.74 34.54 251.48 L 28.59 248.75 L 32.54 246.71 C 43.70 240.96 68.23 232.82 84.18 229.57 C 122.11 221.86 163.19 223.08 200.44 233.04 C 215.61 237.09 215.93 236.25 202.32 228.18 C 161.31 203.86 131.01 172.77 108.09 131.51 C 102.29 121.07 93.00 100.51 93.00 98.12 C 93.00 96.42 94.31 96.70 104.08 100.48 C 134.53 112.24 160.14 129.15 185.11 153.97 C 200.45 169.23 213.88 186.13 223.10 201.79 C 231.85 216.67 232.82 216.50 228.98 200.74 C 218.99 159.81 218.65 119.00 227.96 79.34 C 232.80 58.72 244.12 28.68 246.86 29.21 C 249.21 29.67 258.45 54.09 262.86 71.50 C 273.01 111.57 273.20 150.31 263.47 194.09 C 261.56 202.66 260.00 209.97 260.00 210.34 C 260.00 212.65 262.37 209.77 267.47 201.25 C 289.25 164.85 323.28 130.67 360.00 108.32 C 378.43 97.10 407.00 83.82 407.00 86.47 C 407.00 87.98 400.18 103.69 395.12 113.84 C 380.71 142.76 363.11 166.92 340.37 189.04 C 326.57 202.46 315.92 210.93 298.22 222.58 C 278.06 235.86 277.75 236.16 286.76 233.48 C 309.74 226.66 333.35 223.64 364.00 223.62 C 390.94 223.59 402.48 224.77 426.00 229.93 C 449.25 235.02 482.00 246.12 482.00 248.90 C 482.00 250.42 462.28 257.99 446.64 262.48 C 417.78 270.76 394.90 274.00 365.30 274.00 C 338.13 274.00 318.56 271.66 293.82 265.43 C 288.49 264.10 283.09 263.01 281.82 263.03 L 279.50 263.07 L 281.67 264.78 C 282.86 265.73 287.59 268.65 292.17 271.29 C 324.32 289.76 359.03 321.98 380.91 353.67 C 395.19 374.35 414.92 412.41 412.58 414.75 C 411.53 415.80 402.75 412.39 388.82 405.51 C 336.50 379.67 296.78 343.27 266.85 293.74 C 259.44 281.47 257.00 278.28 257.00 280.85 C 257.00 281.40 258.39 287.40 260.10 294.18 C 271.74 340.49 271.72 385.59 260.03 431.87 C 255.08 451.49 244.56 479.00 242.02 479.00 C 241.50 479.00 240.66 478.21 240.15 477.25 Z" stroke-linecap="round"></path>
</g>
</g>
</g>

  </svg>